<svg xmlns="http://www.w3.org/2000/svg" xmlns:xlink="http://www.w3.org/1999/xlink" width="200" height="200" class="icon" p-id="1221" t="1555950106998" version="1.1" viewBox="0 0 1024 1024"><defs><style type="text/css"/></defs><path fill="#959595" d="M315.54048 74.86464c8.192 3.33824 31.616 12.1344 35.13344 13.18912l3.33824-12.48256c5.55008 3.584 24.8064 15.3856 28.2368 17.27488l6.17984-12.61568c4.82816 4.48512 21.0176 17.84832 23.76704 19.6096a65.47968 65.47968 0 0 0 6.00064-13.98272l28.416 29.696 7.44448-12.88192c8.02816 10.99264 16.32768 20.75136 22.7328 31.5648 10.0608 16.96768 17.67936 35.12832 16.50688 55.39328-1.024 17.7152-11.49952 29.45536-27.01824 37.23776a9.99424 9.99424 0 0 1-8.5248-1.75616c-50.51392-39.70048-107.97568-66.82112-168.41728-88.576a13.62944 13.62944 0 0 0-9.216-0.35328c2.2528 1.408 4.46464 2.90304 6.76352 4.17792 47.04256 24.8832 92.19072 52.49024 132.46976 87.17824A225.02912 225.02912 0 0 1 438.58432 245.76a10.1888 10.1888 0 0 1 2.25792 12.288 57.04704 57.04704 0 0 1-28.64128 31.08352A177.01376 177.01376 0 0 1 333.9008 305.152l7.84896-11.74016-47.17568-6.72768 12.288-9.75872-42.624-14.19776 15.06304-7.03488-41.04192-22.8608 16.68608-5.2736-32.60928-24.44288a61.25568 61.25568 0 0 0 15.55968-6.94784L209.59232 173.056a176.70656 176.70656 0 0 1 17.95072-5.84704 304.128 304.128 0 0 0-27.19744-28.672l21.33504-0.96768-15.20128-33.36704H248.32l-10.752-14.63808c13.44 1.80224 44.29312 5.01248 48.16896 5.05856l-1.26976-12.63616a340.24448 340.24448 0 0 0 34.4576 6.58944 88.64256 88.64256 0 0 1-3.38432-13.71648M403.85536 426.496c45.00992 0.15872 82.08384 30.35648 87.66464 80.16896 5.95456 52.62336-29.04576 107.48928-79.36 126.61248-62.01856 23.42912-122.22976-14.848-125.3888-79.83616-2.8928-60.1856 43.29472-116.28032 103.7312-125.86496 4.41856-0.70144 8.8832-0.74752 13.35296-1.1008m-14.16192 375.296c0.99328 35.84-16.14848 53.98528-48.6656 48.79872a161.024 161.024 0 0 1-16.55296-3.4304c-63.19104-17.05472-103.46496-79.56992-91.648-141.99808 4.608-24.44288 22.144-36.13696 47.40096-31.232 23.99744 4.70528 42.84928 18.0224 59.71456 34.64192a193.13152 193.13152 0 0 1 37.97504 52.36224 124.5696 124.5696 0 0 1 11.7248 40.8832m-155.10528-158.40768a68.88448 68.88448 0 0 1-12.63104 18.81088c-6.58432 7.168-12.08832 6.50752-18.7648-0.65536a110.30016 110.30016 0 0 1 8.192-158.58688 114.82624 114.82624 0 0 1 12.55936-9.61024c12.71808-8.35072 22.09792-6.81472 24.35584 8.35072 9.42592 63.56992-0.36352 110.4384-13.71136 141.696m9.216-199.81312c0.5888-72.40704 71.71584-128 144.28672-112.84992 9.6512 2.0224 11.3664 4.0448 5.59104 12.08832a199.00928 199.00928 0 0 1-29.08672 33.84832c-22.95808 20.224-46.86336 39.424-71.26528 57.984a178.816 178.816 0 0 1-34.0992 18.64192c-13.312 6.0672-15.5136 4.30592-15.36-9.75872M609.28 370.55488c0 30.51008-63.37024 48.27136-97.87392 48.27136-34.59584 0-97.92-17.76128-97.92-48.27136s43.84256-62.208 97.87392-62.208c54.12352 0 97.87392 31.69792 97.87392 62.208M408.09472 886.71744c0-26.99264 68.68992-39.12704 103.28576-39.12704 34.50368 0 103.23968 12.1344 103.23968 39.12704s-49.152 58.60352-103.28576 58.60352c-54.03136 0-103.28576-31.5648-103.28576-58.55744m211.39968-165.21216c0 53.504-53.31456 96.84992-108.11392 96.84992s-108.11392-43.34592-108.11392-96.84992 53.35552-96.84992 108.11392-96.84992 108.15488 43.34592 108.15488 96.84992M707.1744 74.86464c-8.25856 3.33824-31.6672 12.1344-35.13856 13.18912l-3.36384-12.48256c-5.54496 3.584-24.8064 15.3856-28.23168 17.27488l-6.22592-12.61568q-11.47392 10.24-23.72608 19.6096a65.44384 65.44384 0 0 1-5.99552-13.98272l-28.416 29.696-7.44448-12.88192c-8.02816 10.99264-16.32256 20.75136-22.77376 31.5648-10.0608 16.96768-17.67936 35.12832-16.50688 55.39328 1.024 17.7152 11.5456 29.45536 27.0592 37.23776a9.87136 9.87136 0 0 0 8.47872-1.75616c50.56-39.70048 108.032-66.82112 168.448-88.576a13.62944 13.62944 0 0 1 9.216-0.35328c-2.25792 1.408-4.51072 2.90304-6.8096 4.17792-47.0016 24.8832-92.19072 52.49024-132.42368 87.17824A224.9728 224.9728 0 0 0 584.13056 245.76a10.18368 10.18368 0 0 0-2.2528 12.288 57.0368 57.0368 0 0 0 28.63616 31.08352 177.43872 177.43872 0 0 0 78.25408 16.02048L680.96 293.4016l47.1808-6.72768-12.3648-9.75872 42.624-14.19776-15.06816-7.03488 41.04704-22.8608-16.6912-5.2736 32.65536-24.44288a62.62272 62.62272 0 0 1-15.60576-6.94784L813.056 173.056a176.91648 176.91648 0 0 0-17.95584-5.84704 312.92416 312.92416 0 0 1 27.24352-28.672l-21.33504-0.96768 15.1552-33.36704h-41.80992l10.752-14.63808c-13.48608 1.80224-44.29312 5.01248-48.16896 5.05856l1.25952-12.66176a346.49088 346.49088 0 0 1-34.41152 6.59456 89.088 89.088 0 0 0 3.38432-13.71648M618.85952 426.496c-45.056 0.17408-82.08896 30.37696-87.72608 80.18944-5.90848 52.62336 29.04576 107.48928 79.42656 126.61248 62.01856 23.42912 122.22976-14.848 125.3888-79.83616 2.88768-60.1856-43.29984-116.28032-103.73632-125.86496-4.42368-0.70144-8.88832-0.74752-13.35296-1.1008m14.11584 375.296c-0.9472 35.84 16.19456 53.98528 48.71168 48.79872a161.67936 161.67936 0 0 0 16.55296-3.4304c63.14496-17.05472 103.47008-79.56992 91.648-141.99808-4.64896-24.44288-22.1952-36.13696-47.45216-31.232-23.99232 4.70528-42.84416 18.0224-59.66848 34.64192a193.26976 193.26976 0 0 0-37.98016 52.36224 123.80672 123.80672 0 0 0-11.776 40.8832m155.1104-158.4384a70.72256 70.72256 0 0 0 12.672 18.81088c6.58944 7.168 12.08832 6.50752 18.7648-0.65536a110.30528 110.30528 0 0 0-8.192-158.58688 114.88768 114.88768 0 0 0-12.55936-9.61024c-12.71808-8.35072-22.14912-6.81472-24.35584 8.35072-9.472 63.56992 0.3584 110.4384 13.71136 141.696m-9.24672-199.81312c-0.512-72.36096-71.71584-128-144.19456-112.80896-9.6512 2.0224-11.3664 4.0448-5.59104 12.08832a200.73984 200.73984 0 0 0 28.99968 33.85344c23.00416 20.224 46.90432 39.424 71.26016 57.984a180.224 180.224 0 0 0 34.0992 18.64192c13.35296 6.0672 15.51872 4.30592 15.42656-9.75872" p-id="1222"/></svg>