<?xml version="1.0" standalone="no"?><!DOCTYPE svg PUBLIC "-//W3C//DTD SVG 1.1//EN" "http://www.w3.org/Graphics/SVG/1.1/DTD/svg11.dtd"><svg t="1555950087032" class="icon" style="" viewBox="0 0 1024 1024" version="1.1" xmlns="http://www.w3.org/2000/svg" p-id="1109" xmlns:xlink="http://www.w3.org/1999/xlink" width="200" height="200"><defs><style type="text/css"></style></defs><path d="M789.03808 551.936a116.94592 116.94592 0 0 0-44.90752-72.85248 17.6128 17.6128 0 0 1-8.16128-11.43296 110.62272 110.62272 0 0 0-12.288-60.62592c-15.94368-29.78304-50.56-46.66368-50.56-46.66368s-0.7936-3.91168 6.77888-4.74624a22.62016 22.62016 0 0 0 14.9504-9.0112c1.99168-2.7904 0-6.17984 3.98336-7.37792a25.088 25.088 0 0 0 14.75072-7.5776c4.38272-5.58592 5.78048-13.16352 8.3712-15.1552s11.55584-5.7856 15.14496-13.76256-1.792-9.37472 5.98016-14.75584a17.92 17.92 0 0 0 8.192-15.1552c0.19968-2.99008-1.792-4.96128 0-7.56736a31.53408 31.53408 0 0 0 8.77056-14.17216 18.24768 18.24768 0 0 0-2.19136-11.3664c0-1.59744 3.78368-3.584 6.3744-8.576a16.01024 16.01024 0 0 0 0-13.56288c-1.39264-3.38944-3.98336-5.38624-3.584-7.77728s6.3744-12.3648-2.19648-21.9392a22.44608 22.44608 0 0 0-20.92544-6.17984c-1.59232-0.39936-8.192-8.192-16.7424-9.37472s-15.54432-0.39936-17.73568-1.19808-3.7888-5.58592-10.96192-6.17984-11.36128 0.39936-12.55936 0a22.3232 22.3232 0 0 0-14.55104-6.5792 44.33408 44.33408 0 0 0-14.94528 4.18816 19.39968 19.39968 0 0 0-12.35968-5.58592c-8.192-0.19968-13.952 5.58592-16.94208 5.7856s-8.36608-3.38944-15.36-1.9968a31.37024 31.37024 0 0 0-11.56096 6.5792c-1.99168 0.59904-9.1648-1.79712-15.14496-0.19968a31.62112 31.62112 0 0 0-13.55264 10.16832 9.61536 9.61536 0 0 1-10.16832 3.18976c-3.98336-0.9984-19.99872 9.17504-32.8192 29.91616s-12.02176 30.11072-12.02176 30.11072H506.88s0.79872-9.37472-12.02176-30.11072-28.83584-30.90944-32.8192-29.91616a9.61024 9.61024 0 0 1-10.1632-3.18976 31.63136 31.63136 0 0 0-13.55264-10.16832c-5.98016-1.59744-13.15328 0.79872-15.15008 0.19968a31.3088 31.3088 0 0 0-11.55584-6.54848c-6.97856-1.39776-12.35968 2.19136-15.36 1.9968s-8.77056-5.98528-16.94208-5.7856a19.3792 19.3792 0 0 0-12.35456 5.58592 44.34944 44.34944 0 0 0-14.9504-4.18816 22.32832 22.32832 0 0 0-14.55104 6.5792c-1.19808 0.39936-5.38112-0.59904-12.55936 0s-8.77056 5.38624-10.96192 6.17984-9.16992 0-17.7408 1.19808-15.15008 8.97536-16.7424 9.37472a22.44608 22.44608 0 0 0-20.89472 6.16448c-8.57088 9.5744-2.59072 19.54304-2.19136 21.9392s-2.19136 4.38784-3.584 7.77728a16.01536 16.01536 0 0 0 0 13.56288c2.59072 4.98688 6.37952 6.97856 6.37952 8.576a18.22208 18.22208 0 0 0-2.19136 11.3664 31.49824 31.49824 0 0 0 8.7552 14.16704c1.792 2.60608-0.19968 4.57728 0 7.56736a17.92 17.92 0 0 0 8.192 15.1552c7.77216 5.38624 2.39104 6.77888 5.98016 14.75584s12.55936 11.776 15.15008 13.76256 3.98848 9.5744 8.3712 15.1552a25.088 25.088 0 0 0 14.75072 7.5776c3.98848 1.19808 1.99168 4.608 3.98848 7.37792a22.59968 22.59968 0 0 0 14.9504 9.0112c7.57248 0.83456 6.77376 4.74624 6.77376 4.74624s-34.6112 16.896-50.56 46.66368a110.65344 110.65344 0 0 0-12.288 60.62592 17.60256 17.60256 0 0 1-8.15616 11.43296 116.9408 116.9408 0 0 0-44.95872 72.84224 102.18496 102.18496 0 0 0 23.31648 83.2512c8.192 8.2432 5.632 14.336 8.0384 24.99072s11.96032 25.52832 13.02016 29.25056a121.49248 121.49248 0 0 0 8.704 34.816c8.704 22.07232 40.448 51.05664 54.82496 56.3712s23.6544 14.62784 39.33184 24.1664 39.0656 17.0496 42.496 19.712 20.1984 19.9424 40.65792 28.9792a191.85152 191.85152 0 0 0 50.176 11.6992 191.82592 191.82592 0 0 0 50.176-11.6992c20.48-9.0368 37.20704-26.32192 40.65792-28.9792s26.84416-10.17344 42.5216-19.712 24.98048-18.84672 39.33184-24.1664 46.1312-34.304 54.81984-56.3712a121.37984 121.37984 0 0 0 8.704-34.816c1.06496-3.72224 10.63424-18.6112 13.02528-29.25056s-0.13824-16.74752 8.03328-24.99072a102.16448 102.16448 0 0 0 23.28064-83.2512z" fill="" p-id="1110"></path><path d="M359.73632 176.08192c6.23104 2.56 24.00768 9.36448 26.68032 10.17856l2.52928-9.62048c4.21376 2.74944 18.83648 11.87328 21.44256 13.312l4.68992-9.728c3.66592 3.46112 15.95904 13.7728 18.048 15.1296a50.96448 50.96448 0 0 0 4.5568-10.78784l21.5808 22.93248 5.632-9.93792c6.09792 8.47872 12.40064 16.01024 17.25952 24.35584a75.98592 75.98592 0 0 1 12.53376 42.74688 33.51552 33.51552 0 0 1-20.49536 28.71296 7.49568 7.49568 0 0 1-6.47168-1.3568c-38.35904-30.6176-81.99168-51.54816-127.88736-68.34176a10.1888 10.1888 0 0 0-6.9888-0.27136c1.7152 1.08544 3.38944 2.23744 5.12 3.22048A535.51104 535.51104 0 0 1 438.57408 293.888a172.032 172.032 0 0 1 14.592 14.04416A7.95136 7.95136 0 0 1 454.88128 317.44a43.76064 43.76064 0 0 1-21.72928 23.9872A132.57728 132.57728 0 0 1 373.67296 353.792l5.95968-9.05728-35.84-5.19168 9.34912-7.53152-32.34816-10.98752 11.43808-5.4272L301.056 297.984l12.672-4.096-24.7552-18.84672a46.16704 46.16704 0 0 0 11.81696-5.36064l-21.504-17.81248a132.93056 132.93056 0 0 1 13.62944-4.51072 233.2928 233.2928 0 0 0-20.65408-22.1184l16.19968-0.74752-11.54048-25.74848h31.78496L300.544 187.44832c10.20416 1.39264 33.63328 3.8656 36.57728 3.90144l-0.99328-9.76896a254.53568 254.53568 0 0 0 26.16832 5.08928 69.23264 69.23264 0 0 1-2.56-10.58304m297.39008 0c-6.26688 2.56-24.064 9.36448-26.68032 10.17856l-2.53952-9.6256c-4.21376 2.74944-18.83648 11.87328-21.43744 13.312l-4.73088-9.728q-8.704 7.90528-18.01216 15.1296a51.07712 51.07712 0 0 1-4.5568-10.78784l-21.57568 22.93248-5.632-9.93792c-6.09792 8.47872-12.40064 16.01024-17.29536 24.35584a75.97568 75.97568 0 0 0-12.53376 42.74688 33.55136 33.55136 0 0 0 20.54656 28.73344 7.40864 7.40864 0 0 0 6.44096-1.3568c38.4-30.63296 82.02752-51.56352 127.9232-68.35712a10.17856 10.17856 0 0 1 6.98368-0.27136c-1.71008 1.08544-3.42528 2.23744-5.1712 3.22048A535.32672 535.32672 0 0 0 578.2784 293.888a172.032 172.032 0 0 0-14.58688 14.04416 7.95136 7.95136 0 0 0-1.7152 9.50784 43.74528 43.74528 0 0 0 21.74976 23.98208 132.88448 132.88448 0 0 0 59.42272 12.36992l-5.92384-9.05728 35.84-5.19168-9.38496-7.53152 32.36352-10.9568-11.43808-5.4272L715.776 297.984l-12.672-4.096 24.79616-18.86208a47.22176 47.22176 0 0 1-11.84768-5.36064l21.504-17.81248a132.87936 132.87936 0 0 0-13.63456-4.51072 240.05632 240.05632 0 0 1 20.68992-22.1184l-16.19968-0.74752 11.50464-25.74848h-31.744l8.15104-11.29472c-10.24 1.39264-33.63328 3.8656-36.57728 3.90144l0.95744-9.76896a259.17952 259.17952 0 0 1-26.112 5.08928 69.21728 69.21728 0 0 0 2.56-10.58304" fill="#7CC331" p-id="1111"></path><path d="M426.34752 438.14912c34.38592 0.12288 62.70464 23.13216 66.97984 61.05088 4.54656 40.07424-22.19008 81.85856-60.64128 96.41984-47.37536 17.84832-93.37344-11.3152-95.78496-60.8-2.20672-45.82912 33.0752-88.576 79.24736-95.85152 3.37408-0.512 6.78912-0.56832 10.19904-0.83456M415.52384 723.968c0.75776 27.28448-12.33408 41.1136-37.17632 37.16096a123.392 123.392 0 0 1-12.6464-2.6112C317.44 745.5232 286.66368 697.91744 295.69536 650.37312c3.51232-18.6112 16.896-27.52 36.21376-23.76704a89.45152 89.45152 0 0 1 45.6192 26.38336 147.06176 147.06176 0 0 1 29.00992 39.87456 94.6432 94.6432 0 0 1 8.96 31.13472m-118.49728-120.66304a52.48512 52.48512 0 0 1-9.64608 14.336c-5.03296 5.45792-9.216 4.95616-14.336-0.512a83.81952 83.81952 0 0 1 6.25664-120.77568 87.68512 87.68512 0 0 1 9.59488-7.3216c9.728-6.35904 16.896-5.19168 18.60608 6.35904 7.20384 48.4096-0.27648 84.10112-10.47552 107.904m7.02976-152.15104c0.45056-55.1424 54.784-97.48992 110.22336-85.94432 7.3728 1.536 8.704 3.072 4.27008 9.216a151.68 151.68 0 0 1-22.19008 25.7792c-17.536 15.40096-35.79904 30.03392-54.43584 44.16a136.704 136.704 0 0 1-26.04544 14.19776c-10.1632 4.608-11.8528 3.28192-11.7504-7.43424m279.14752-55.5776c0 23.23456-48.4096 36.7616-74.752 36.7616S433.664 418.816 433.664 395.56096s33.48992-47.37536 74.752-47.37536 74.752 24.1408 74.752 47.37536m-153.6 393.088c0-20.5568 52.47488-29.7984 78.8992-29.7984s78.848 9.2416 78.848 29.7984-37.5552 44.62592-78.8992 44.62592-78.8992-24.0384-78.8992-44.5952m161.48992-125.81888c0 40.75008-40.72448 73.75872-82.5856 73.75872s-82.5856-33.00864-82.5856-73.75872 40.76032-73.728 82.5856-73.728 82.62144 33.01376 82.62144 73.7536m-0.45056-224.73728c-34.42176 0.13312-62.70976 23.13216-67.01568 61.06624-4.51584 40.07424 22.19008 81.85856 60.672 96.41984 47.37536 17.84832 93.37344-11.3152 95.78496-60.8 2.20672-45.82912-33.0752-88.576-79.24224-95.85152-3.3792-0.512-6.78912-0.56832-10.19904-0.83456m10.78272 285.81376c-0.72192 27.28448 12.36992 41.1136 37.21216 37.16096a123.35616 123.35616 0 0 0 12.6464-2.6112c48.23552-12.98944 79.03744-60.5952 70.01088-108.13952-3.54816-18.6112-16.95232-27.52-36.2496-23.76704a89.21088 89.21088 0 0 0-45.568 26.38336 147.16416 147.16416 0 0 0-29.00992 39.87456 94.03904 94.03904 0 0 0-8.99072 31.13472m118.44608-120.66304a53.80608 53.80608 0 0 0 9.68192 14.336c5.03296 5.45792 9.216 4.95616 14.336-0.512a83.81952 83.81952 0 0 0-6.25664-120.77568 87.75168 87.75168 0 0 0-9.59488-7.3216c-9.728-6.35904-16.896-5.19168-18.60608 6.35904-7.23456 48.4096 0.27648 84.10112 10.47552 107.904m-7.0656-152.16128c-0.37888-55.10656-54.784-97.48992-110.15168-85.90848-7.3728 1.536-8.704 3.072-4.27008 9.216a153.14944 153.14944 0 0 0 22.15424 25.7792c17.57184 15.40096 35.84 30.0288 54.44096 44.16a137.728 137.728 0 0 0 26.04544 14.19776c10.19904 4.608 11.8528 3.28192 11.776-7.43424" fill="#DA0039" p-id="1112"></path></svg>